<svg width="57" height="49" viewBox="0 0 57 49" fill="none" xmlns="http://www.w3.org/2000/svg">
<path d="M9.62376 31L0.844204 45.4621C0.0350699 46.795 0.994613 48.5 2.55384 48.5H8.48905C9.19283 48.5 9.84482 48.1301 10.2058 47.526L16.5657 36.8837C17.0484 36.076 18.0287 35.714 18.9204 36.0141L53.7719 47.7409C55.544 48.3371 57.0924 46.3924 56.1142 44.799L51.6337 37.5L25.0442 27.306C23.9255 26.8771 23.4323 25.5677 23.9901 24.5074L33.0668 7.25403L29.7618 1.87003C28.9678 0.576515 27.0788 0.604166 26.323 1.92037L14.5 22.5086L9.62376 31Z" fill="#3A86FF"/>
<path d="M51.6337 37.5L56.1142 44.799C57.0924 46.3924 55.544 48.3371 53.7719 47.7409L18.9204 36.0141C18.0287 35.714 17.0484 36.076 16.5657 36.8837L10.2058 47.526C9.84482 48.1301 9.19283 48.5 8.48905 48.5H2.55384C0.994613 48.5 0.0350699 46.795 0.844204 45.4621L9.62376 31L14.5 22.5086L26.323 1.92037C27.0788 0.604166 28.9678 0.576515 29.7618 1.87003L33.0668 7.25403M51.6337 37.5L25.0442 27.306C23.9255 26.8771 23.4323 25.5677 23.9901 24.5074L33.0668 7.25403M51.6337 37.5L33.0668 7.25403" stroke="white" stroke-linejoin="round"/>
</svg>
