<svg width="59" height="51" viewBox="0 0 59 51" fill="none" xmlns="http://www.w3.org/2000/svg">
<path d="M10.6238 32L1.8442 46.4621C1.03507 47.795 1.99461 49.5 3.55384 49.5H9.48905C10.1928 49.5 10.8448 49.1301 11.2058 48.526L17.5657 37.8837C18.0484 37.076 19.0287 36.714 19.9204 37.0141L54.7719 48.7409C56.544 49.3371 58.0924 47.3924 57.1142 45.799L52.6337 38.5L26.0442 28.306C24.9255 27.8771 24.4323 26.5677 24.9901 25.5074L34.0668 8.25403L30.7618 2.87003C29.9678 1.57651 28.0788 1.60417 27.323 2.92037L15.5 23.5086L10.6238 32Z" fill="#FBA500"/>
<path d="M52.6337 38.5L57.1142 45.799C58.0924 47.3924 56.544 49.3371 54.7719 48.7409L19.9204 37.0141C19.0287 36.714 18.0484 37.076 17.5657 37.8837L11.2058 48.526C10.8448 49.1301 10.1928 49.5 9.48905 49.5H3.55384C1.99461 49.5 1.03507 47.795 1.8442 46.4621L10.6238 32L15.5 23.5086L27.323 2.92037C28.0788 1.60417 29.9678 1.57651 30.7618 2.87003L34.0668 8.25403M52.6337 38.5L26.0442 28.306C24.9255 27.8771 24.4323 26.5677 24.9901 25.5074L34.0668 8.25403M52.6337 38.5L34.0668 8.25403" stroke="black" stroke-width="2" stroke-linejoin="round"/>
</svg>
